<svg width="254" height="62" viewBox="0 0 254 62" fill="none" xmlns="http://www.w3.org/2000/svg">
<rect x="1" y="1" width="252" height="60" rx="8" stroke="url(#paint0_linear_1_125)" stroke-miterlimit="10"/>
<path d="M39.1 22.7C39.5933 22.7 40.0467 22.7867 40.46 22.96C40.8867 23.12 41.2467 23.3467 41.54 23.64C41.8467 23.92 42.08 24.2533 42.24 24.64C42.4133 25.0267 42.5 25.4467 42.5 25.9C42.5 26.2467 42.4533 26.56 42.36 26.84C42.28 27.1067 42.1667 27.3467 42.02 27.56C41.8867 27.76 41.7267 27.94 41.54 28.1C41.3667 28.2467 41.1867 28.3667 41 28.46C40.56 28.7 40.06 28.8467 39.5 28.9C40.1933 28.9667 40.8067 29.16 41.34 29.48C41.5667 29.6133 41.7933 29.78 42.02 29.98C42.2467 30.18 42.4467 30.4267 42.62 30.72C42.7933 31 42.9333 31.3333 43.04 31.72C43.1467 32.0933 43.2 32.52 43.2 33C43.2 33.6 43.0867 34.16 42.86 34.68C42.6333 35.2 42.32 35.66 41.92 36.06C41.52 36.4467 41.0467 36.7533 40.5 36.98C39.9533 37.1933 39.3533 37.3 38.7 37.3C38.1533 37.3 37.6467 37.2067 37.18 37.02C36.7133 36.8333 36.3067 36.5867 35.96 36.28C35.6267 35.96 35.3667 35.6 35.18 35.2C34.9933 34.7867 34.9 34.3533 34.9 33.9C34.9 32.8467 35.0933 32.0867 35.48 31.62C35.88 31.14 36.3533 30.9 36.9 30.9C36.9667 30.9 37.0333 30.9067 37.1 30.92C37.18 30.9333 37.2533 30.9467 37.32 30.96C37.3867 30.9733 37.4467 30.9867 37.5 31L37.1 32.6C35.9 32.6 35.3 33.1667 35.3 34.3C35.3 34.6067 35.38 34.9133 35.54 35.22C35.7133 35.5267 35.94 35.8067 36.22 36.06C36.5133 36.3 36.8533 36.5 37.24 36.66C37.6267 36.82 38.0467 36.9 38.5 36.9C39.3 36.9 39.9667 36.5867 40.5 35.96C41.0333 35.3333 41.3 34.3467 41.3 33C41.3 31.6533 41.0333 30.6667 40.5 30.04C39.9667 29.4133 39.3 29.1 38.5 29.1H37.9V28.7H38.5C39.1533 28.7 39.7 28.46 40.14 27.98C40.58 27.5 40.8 26.8067 40.8 25.9C40.8 25.4467 40.74 25.0467 40.62 24.7C40.5133 24.3533 40.3667 24.06 40.18 23.82C40.0067 23.58 39.8067 23.4 39.58 23.28C39.3533 23.16 39.1267 23.1 38.9 23.1C38.3 23.1 37.74 23.3933 37.22 23.98C36.7133 24.5533 36.3067 25.3933 36 26.5H35.7C35.7133 26.3 35.7267 26.0933 35.74 25.88C35.7533 25.6933 35.7667 25.4933 35.78 25.28C35.7933 25.0533 35.8 24.8267 35.8 24.6C35.8 24.4 35.7933 24.2 35.78 24C35.7667 23.7867 35.7533 23.5867 35.74 23.4C35.7267 23.2 35.7133 23 35.7 22.8H36C36.2 22.8533 36.3867 22.9733 36.56 23.16C36.7467 23.3333 36.8933 23.52 37 23.72C37.16 23.5333 37.3467 23.3667 37.56 23.22C37.7467 23.0867 37.9667 22.9667 38.22 22.86C38.4733 22.7533 38.7667 22.7 39.1 22.7ZM47.1063 32.52H50.9863L48.9863 25.9L47.1063 32.52ZM51.1063 32.9H47.0063L46.0063 36.3L47.3063 36.8V37H44.3062V36.8L45.6063 36.3L49.5063 22.7H49.8063L54.0063 36.5L55.2063 36.8V37H51.0063V36.8L52.2063 36.5L51.1063 32.9ZM59.5969 28H60.2969C61.1235 28 61.8569 28.1133 62.4969 28.34C63.1502 28.5667 63.6969 28.88 64.1369 29.28C64.5769 29.68 64.9102 30.1533 65.1369 30.7C65.3769 31.2467 65.4969 31.8467 65.4969 32.5C65.4969 33.1533 65.3769 33.7533 65.1369 34.3C64.9102 34.8467 64.5769 35.32 64.1369 35.72C63.6969 36.12 63.1502 36.4333 62.4969 36.66C61.8569 36.8867 61.1235 37 60.2969 37H56.6969V36.8L57.8969 36.5V23.5L56.6969 23.2V23H63.9969C63.9702 23.12 63.9502 23.26 63.9369 23.42C63.9235 23.5667 63.9102 23.74 63.8969 23.94C63.8969 24.1267 63.8969 24.3467 63.8969 24.6C63.8969 24.7867 63.8969 24.9733 63.8969 25.16C63.9102 25.3333 63.9235 25.5 63.9369 25.66C63.9502 25.8467 63.9702 26.0267 63.9969 26.2H63.7969C63.4502 25.8533 63.1635 25.44 62.9369 24.96C62.7102 24.48 62.5969 23.96 62.5969 23.4H59.5969V28ZM59.5969 36.6H60.2969C61.3502 36.6 62.1635 36.28 62.7369 35.64C63.3102 35 63.5969 33.9533 63.5969 32.5C63.5969 31.0467 63.3102 30 62.7369 29.36C62.1635 28.72 61.3502 28.4 60.2969 28.4H59.5969V36.6ZM70.8898 32V36.5L72.0898 36.8V37H67.9898V36.8L69.1898 36.5V23.5L67.9898 23.2V23H71.5898C72.4165 23 73.1498 23.1133 73.7898 23.34C74.4432 23.5667 74.9898 23.88 75.4298 24.28C75.8698 24.68 76.2032 25.1533 76.4298 25.7C76.6698 26.2467 76.7898 26.8467 76.7898 27.5C76.7898 28.1533 76.6698 28.7533 76.4298 29.3C76.2032 29.8467 75.8698 30.32 75.4298 30.72C74.9898 31.12 74.4432 31.4333 73.7898 31.66C73.1498 31.8867 72.4165 32 71.5898 32H70.8898ZM70.8898 31.6H71.5898C72.6432 31.6 73.4565 31.28 74.0298 30.64C74.6032 30 74.8898 28.9533 74.8898 27.5C74.8898 26.0467 74.6032 25 74.0298 24.36C73.4565 23.72 72.6432 23.4 71.5898 23.4H70.8898V31.6ZM88.3875 30C88.3875 31.2267 88.2475 32.3 87.9675 33.22C87.7008 34.1267 87.3408 34.8867 86.8875 35.5C86.4475 36.1 85.9475 36.5533 85.3875 36.86C84.8275 37.1533 84.2608 37.3 83.6875 37.3C83.1142 37.3 82.5475 37.1533 81.9875 36.86C81.4275 36.5533 80.9208 36.1 80.4675 35.5C80.0275 34.8867 79.6675 34.1267 79.3875 33.22C79.1208 32.3 78.9875 31.2267 78.9875 30C78.9875 28.7733 79.1208 27.7067 79.3875 26.8C79.6675 25.88 80.0275 25.12 80.4675 24.52C80.9208 23.9067 81.4275 23.4533 81.9875 23.16C82.5475 22.8533 83.1142 22.7 83.6875 22.7C84.2608 22.7 84.8275 22.8533 85.3875 23.16C85.9475 23.4533 86.4475 23.9067 86.8875 24.52C87.3408 25.12 87.7008 25.88 87.9675 26.8C88.2475 27.7067 88.3875 28.7733 88.3875 30ZM86.4875 30C86.4875 28.6267 86.4008 27.4933 86.2275 26.6C86.0675 25.6933 85.8475 24.9733 85.5675 24.44C85.3008 23.9067 85.0008 23.5333 84.6675 23.32C84.3342 23.1067 84.0075 23 83.6875 23C83.3675 23 83.0408 23.1067 82.7075 23.32C82.3742 23.5333 82.0675 23.9067 81.7875 24.44C81.5208 24.9733 81.3008 25.6933 81.1275 26.6C80.9675 27.4933 80.8875 28.6267 80.8875 30C80.8875 31.3733 80.9675 32.5133 81.1275 33.42C81.3008 34.3133 81.5208 35.0267 81.7875 35.56C82.0675 36.0933 82.3742 36.4667 82.7075 36.68C83.0408 36.8933 83.3675 37 83.6875 37C84.0075 37 84.3342 36.8933 84.6675 36.68C85.0008 36.4667 85.3008 36.0933 85.5675 35.56C85.8475 35.0267 86.0675 34.3133 86.2275 33.42C86.4008 32.5133 86.4875 31.3733 86.4875 30ZM93.9836 29.8V36.5L95.1836 36.8V37H91.0836V36.8L92.2836 36.5V23.5L91.0836 23.2V23H95.1836V23.2L93.9836 23.5V29.4H98.0836V23.5L96.8836 23.2V23H100.984V23.2L99.7836 23.5V36.5L100.984 36.8V37H96.8836V36.8L98.0836 36.5V29.8H93.9836ZM106.683 34.4V36.5L107.883 36.8V37H103.783V36.8L104.983 36.5V23.5L103.783 23.2V23H107.883V23.2L106.683 23.5V33.6L110.783 25.4V23.5L109.583 23.2V23H113.683V23.2L112.483 23.5V36.5L113.683 36.8V37H109.583V36.8L110.783 36.5V26.2L106.683 34.4ZM119.382 32V36.5L120.582 36.8V37H116.482V36.8L117.682 36.5V23.5L116.482 23.2V23H120.082C120.909 23 121.642 23.1133 122.282 23.34C122.935 23.5667 123.482 23.88 123.922 24.28C124.362 24.68 124.695 25.1533 124.922 25.7C125.162 26.2467 125.282 26.8467 125.282 27.5C125.282 28.1533 125.162 28.7533 124.922 29.3C124.695 29.8467 124.362 30.32 123.922 30.72C123.482 31.12 122.935 31.4333 122.282 31.66C121.642 31.8867 120.909 32 120.082 32H119.382ZM119.382 31.6H120.082C121.135 31.6 121.949 31.28 122.522 30.64C123.095 30 123.382 28.9533 123.382 27.5C123.382 26.0467 123.095 25 122.522 24.36C121.949 23.72 121.135 23.4 120.082 23.4H119.382V31.6ZM136.88 30C136.88 31.2267 136.74 32.3 136.46 33.22C136.193 34.1267 135.833 34.8867 135.38 35.5C134.94 36.1 134.44 36.5533 133.88 36.86C133.32 37.1533 132.753 37.3 132.18 37.3C131.606 37.3 131.04 37.1533 130.48 36.86C129.92 36.5533 129.413 36.1 128.96 35.5C128.52 34.8867 128.16 34.1267 127.88 33.22C127.613 32.3 127.48 31.2267 127.48 30C127.48 28.7733 127.613 27.7067 127.88 26.8C128.16 25.88 128.52 25.12 128.96 24.52C129.413 23.9067 129.92 23.4533 130.48 23.16C131.04 22.8533 131.606 22.7 132.18 22.7C132.753 22.7 133.32 22.8533 133.88 23.16C134.44 23.4533 134.94 23.9067 135.38 24.52C135.833 25.12 136.193 25.88 136.46 26.8C136.74 27.7067 136.88 28.7733 136.88 30ZM134.98 30C134.98 28.6267 134.893 27.4933 134.72 26.6C134.56 25.6933 134.34 24.9733 134.06 24.44C133.793 23.9067 133.493 23.5333 133.16 23.32C132.826 23.1067 132.5 23 132.18 23C131.86 23 131.533 23.1067 131.2 23.32C130.866 23.5333 130.56 23.9067 130.28 24.44C130.013 24.9733 129.793 25.6933 129.62 26.6C129.46 27.4933 129.38 28.6267 129.38 30C129.38 31.3733 129.46 32.5133 129.62 33.42C129.793 34.3133 130.013 35.0267 130.28 35.56C130.56 36.0933 130.866 36.4667 131.2 36.68C131.533 36.8933 131.86 37 132.18 37C132.5 37 132.826 36.8933 133.16 36.68C133.493 36.4667 133.793 36.0933 134.06 35.56C134.34 35.0267 134.56 34.3133 134.72 33.42C134.893 32.5133 134.98 31.3733 134.98 30ZM139.576 37V36.8L140.776 36.5V23.5L139.576 23.2V23H143.176C143.802 23 144.342 23.0733 144.796 23.22C145.262 23.3533 145.649 23.5467 145.956 23.8C146.262 24.04 146.489 24.3267 146.636 24.66C146.796 24.98 146.876 25.3267 146.876 25.7C146.876 25.9933 146.829 26.2533 146.736 26.48C146.656 26.7067 146.542 26.9067 146.396 27.08C146.262 27.24 146.102 27.3867 145.916 27.52C145.742 27.64 145.562 27.74 145.376 27.82C144.936 28.02 144.436 28.1467 143.876 28.2C144.702 28.28 145.436 28.4867 146.076 28.82C146.356 28.9667 146.622 29.1467 146.876 29.36C147.142 29.56 147.376 29.8133 147.576 30.12C147.789 30.4133 147.956 30.76 148.076 31.16C148.209 31.5467 148.276 31.9933 148.276 32.5C148.276 33.1267 148.156 33.7133 147.916 34.26C147.676 34.8067 147.329 35.2867 146.876 35.7C146.436 36.1 145.902 36.42 145.276 36.66C144.649 36.8867 143.949 37 143.176 37H139.576ZM142.476 28.4V36.6H143.176C143.629 36.6 144.049 36.5133 144.436 36.34C144.822 36.1667 145.156 35.9067 145.436 35.56C145.729 35.2133 145.956 34.7867 146.116 34.28C146.289 33.7733 146.376 33.18 146.376 32.5C146.376 31.82 146.289 31.2267 146.116 30.72C145.956 30.2133 145.729 29.7867 145.436 29.44C145.156 29.0933 144.822 28.8333 144.436 28.66C144.049 28.4867 143.629 28.4 143.176 28.4H142.476ZM142.476 28H143.176C143.776 27.9867 144.256 27.7933 144.616 27.42C144.989 27.0333 145.176 26.46 145.176 25.7C145.176 24.94 144.989 24.3667 144.616 23.98C144.256 23.5933 143.776 23.4 143.176 23.4H142.476V28ZM152.083 32.52H155.963L153.963 25.9L152.083 32.52ZM156.083 32.9H151.983L150.983 36.3L152.283 36.8V37H149.283V36.8L150.583 36.3L154.483 22.7H154.783L158.983 36.5L160.183 36.8V37H155.983V36.8L157.183 36.5L156.083 32.9ZM165.577 36.5L166.777 36.8V37H162.677V36.8L163.877 36.5V23.4H161.777C161.777 23.96 161.664 24.48 161.437 24.96C161.211 25.44 160.924 25.8533 160.577 26.2H160.377C160.391 26.0267 160.404 25.8467 160.417 25.66C160.431 25.5 160.444 25.3333 160.457 25.16C160.471 24.9733 160.477 24.7867 160.477 24.6C160.477 24.3467 160.471 24.1267 160.457 23.94C160.444 23.74 160.431 23.5667 160.417 23.42C160.404 23.26 160.391 23.12 160.377 23H169.077C169.051 23.12 169.031 23.26 169.017 23.42C169.004 23.5667 168.991 23.74 168.977 23.94C168.977 24.1267 168.977 24.3467 168.977 24.6C168.977 24.7867 168.977 24.9733 168.977 25.16C168.991 25.3333 169.004 25.5 169.017 25.66C169.031 25.8467 169.051 26.0267 169.077 26.2H168.877C168.531 25.8533 168.244 25.44 168.017 24.96C167.791 24.48 167.677 23.96 167.677 23.4H165.577V36.5ZM175.18 28.4C176.006 28.4 176.74 28.5133 177.38 28.74C178.033 28.9533 178.58 29.26 179.02 29.66C179.46 30.0467 179.793 30.5 180.02 31.02C180.26 31.54 180.38 32.1 180.38 32.7C180.38 33.3 180.26 33.86 180.02 34.38C179.793 34.9 179.46 35.36 179.02 35.76C178.58 36.1467 178.033 36.4533 177.38 36.68C176.74 36.8933 176.006 37 175.18 37H171.58V36.8L172.78 36.5V23.5L171.58 23.2V23H175.68V23.2L174.48 23.5V28.4H175.18ZM174.48 36.6H175.18C176.233 36.6 177.046 36.2933 177.62 35.68C178.193 35.0533 178.48 34.06 178.48 32.7C178.48 31.34 178.193 30.3533 177.62 29.74C177.046 29.1133 176.233 28.8 175.18 28.8H174.48V36.6ZM193.382 36.5L194.582 36.8V37H190.482V36.8L191.682 36.5V23.4H189.582C189.582 23.96 189.469 24.48 189.242 24.96C189.015 25.44 188.729 25.8533 188.382 26.2H188.182C188.195 26.0267 188.209 25.8467 188.222 25.66C188.235 25.5 188.249 25.3333 188.262 25.16C188.275 24.9733 188.282 24.7867 188.282 24.6C188.282 24.3467 188.275 24.1267 188.262 23.94C188.249 23.74 188.235 23.5667 188.222 23.42C188.209 23.26 188.195 23.12 188.182 23H196.882C196.855 23.12 196.835 23.26 196.822 23.42C196.809 23.5667 196.795 23.74 196.782 23.94C196.782 24.1267 196.782 24.3467 196.782 24.6C196.782 24.7867 196.782 24.9733 196.782 25.16C196.795 25.3333 196.809 25.5 196.822 25.66C196.835 25.8467 196.855 26.0267 196.882 26.2H196.682C196.335 25.8533 196.049 25.44 195.822 24.96C195.595 24.48 195.482 23.96 195.482 23.4H193.382V36.5ZM204.464 31.96L206.984 23.7L205.684 23.2V23H208.684V23.2L207.384 23.7L204.044 34.6C203.858 35.2 203.664 35.7067 203.464 36.12C203.264 36.52 203.051 36.8467 202.824 37.1C202.598 37.3533 202.344 37.5333 202.064 37.64C201.798 37.7467 201.504 37.8 201.184 37.8C201.104 37.8 201.031 37.7933 200.964 37.78C200.898 37.78 200.831 37.7733 200.764 37.76C200.698 37.7467 200.638 37.7267 200.584 37.7L200.284 36.3C200.338 36.3267 200.398 36.3467 200.464 36.36C200.531 36.3733 200.598 36.3867 200.664 36.4C200.731 36.4 200.804 36.4 200.884 36.4C201.738 36.4 202.364 36.24 202.764 35.92C203.164 35.6 203.458 35.16 203.644 34.6L199.484 23.5L198.284 23.2V23H202.484V23.2L201.284 23.5L204.464 31.96ZM213.089 32V36.5L214.289 36.8V37H210.189V36.8L211.389 36.5V23.5L210.189 23.2V23H213.789C214.616 23 215.349 23.1133 215.989 23.34C216.642 23.5667 217.189 23.88 217.629 24.28C218.069 24.68 218.402 25.1533 218.629 25.7C218.869 26.2467 218.989 26.8467 218.989 27.5C218.989 28.1533 218.869 28.7533 218.629 29.3C218.402 29.8467 218.069 30.32 217.629 30.72C217.189 31.12 216.642 31.4333 215.989 31.66C215.349 31.8867 214.616 32 213.789 32H213.089ZM213.089 31.6H213.789C214.842 31.6 215.656 31.28 216.229 30.64C216.802 30 217.089 28.9533 217.089 27.5C217.089 26.0467 216.802 25 216.229 24.36C215.656 23.72 214.842 23.4 213.789 23.4H213.089V31.6Z" fill="black"/>
<defs>
<linearGradient id="paint0_linear_1_125" x1="245.41" y1="51" x2="0.7368" y2="-0.161311" gradientUnits="userSpaceOnUse">
<stop stop-color="#9F734C"/>
<stop offset="1" stop-color="#F0D683"/>
</linearGradient>
</defs>
</svg>
