<svg width="36" height="26" viewBox="0 0 36 26" fill="none" xmlns="http://www.w3.org/2000/svg">
<path d="M29.126 0.209961H6.87394C5.98469 0.209961 5.10415 0.385187 4.28264 0.725625C3.46114 1.06606 2.71476 1.56504 2.08618 2.19404C1.45759 2.82305 0.959102 3.56975 0.619207 4.39148C0.279312 5.21321 0.104669 6.09387 0.105257 6.98312V19.0173C0.104669 19.9066 0.279312 20.7872 0.619207 21.609C0.959102 22.4307 1.45759 23.1774 2.08618 23.8064C2.71476 24.4354 3.46114 24.9344 4.28264 25.2748C5.10415 25.6153 5.98469 25.7905 6.87394 25.7905H29.126C30.0153 25.7905 30.8958 25.6153 31.7173 25.2748C32.5388 24.9344 33.2852 24.4354 33.9138 23.8064C34.5424 23.1774 35.0409 22.4307 35.3808 21.609C35.7207 20.7872 35.8953 19.9066 35.8947 19.0173V6.98312C35.8953 6.09387 35.7207 5.21321 35.3808 4.39148C35.0409 3.56975 34.5424 2.82305 33.9138 2.19404C33.2852 1.56504 32.5388 1.06606 31.7173 0.725625C30.8958 0.385187 30.0153 0.209961 29.126 0.209961ZM13.2847 18.485V7.51549L22.7153 13.0002L13.2847 18.485Z" fill="#222222"/>
</svg>
